<svg width="309" height="24" viewBox="0 0 309 24" fill="none" xmlns="http://www.w3.org/2000/svg">
<rect y="2" width="4" height="20" rx="2" fill="#D9D9D9"/>
<rect x="5" y="4" width="4" height="16" rx="2" fill="#D9D9D9"/>
<rect x="10" y="2" width="4" height="20" rx="2" fill="#D9D9D9"/>
<rect x="15" y="9" width="4" height="6" rx="2" fill="#D9D9D9"/>
<rect x="20" y="4" width="4" height="16" rx="2" fill="#D9D9D9"/>
<rect x="25" width="4" height="24" rx="2" fill="#D9D9D9"/>
<rect x="30" y="1" width="4" height="22" rx="2" fill="#D9D9D9"/>
<rect x="35" y="3" width="4" height="18" rx="2" fill="#D9D9D9"/>
<rect x="40" y="6" width="4" height="12" rx="2" fill="#D9D9D9"/>
<rect x="45" y="2" width="4" height="20" rx="2" fill="#D9D9D9"/>
<rect x="50" y="5" width="4" height="14" rx="2" fill="#D9D9D9"/>
<rect x="55" y="3" width="4" height="18" rx="2" fill="#D9D9D9"/>
<rect x="60" width="4" height="24" rx="2" fill="#D9D9D9"/>
<rect x="65" y="1" width="4" height="22" rx="2" fill="#D9D9D9"/>
<rect x="70" width="4" height="24" rx="2" fill="#D9D9D9"/>
<rect x="75" y="2" width="4" height="20" rx="2" fill="#D9D9D9"/>
<rect x="80" width="4" height="24" rx="2" fill="#D9D9D9"/>
<rect x="85" y="2" width="4" height="20" rx="2" fill="#D9D9D9"/>
<rect x="90" y="1" width="4" height="22" rx="2" fill="#D9D9D9"/>
<rect x="95" width="4" height="24" rx="2" fill="#D9D9D9"/>
<rect x="100" y="3" width="4" height="18" rx="2" fill="#D9D9D9"/>
<rect x="105" y="5" width="4" height="14" rx="2" fill="#D9D9D9"/>
<rect x="110" y="4" width="4" height="16" rx="2" fill="#D9D9D9"/>
<rect x="115" y="3" width="4" height="18" rx="2" fill="#D9D9D9"/>
<rect x="120" y="3" width="4" height="18" rx="2" fill="#D9D9D9"/>
<rect x="125" width="4" height="24" rx="2" fill="#D9D9D9"/>
<rect x="130" width="4" height="24" rx="2" fill="#D9D9D9"/>
<rect x="135" width="4" height="24" rx="2" fill="#D9D9D9"/>
<rect x="140" width="4" height="24" rx="2" fill="#D9D9D9"/>
<rect x="145" y="3" width="4" height="18" rx="2" fill="#D9D9D9"/>
<rect x="150" width="4" height="24" rx="2" fill="#D9D9D9"/>
<rect x="155" width="4" height="24" rx="2" fill="#D9D9D9"/>
<rect x="160" width="4" height="24" rx="2" fill="#D9D9D9"/>
<rect x="165" width="4" height="24" rx="2" fill="#D9D9D9"/>
<rect x="170" y="3" width="4" height="18" rx="2" fill="#D9D9D9"/>
<rect x="175" y="2" width="4" height="20" rx="2" fill="#D9D9D9"/>
<rect x="180" width="4" height="24" rx="2" fill="#D9D9D9"/>
<rect x="185" width="4" height="24" rx="2" fill="#D9D9D9"/>
<rect x="190" y="3" width="4" height="18" rx="2" fill="#D9D9D9"/>
<rect x="195" y="2" width="4" height="20" rx="2" fill="#D9D9D9"/>
<rect x="200" y="3" width="4" height="18" rx="2" fill="#D9D9D9"/>
<rect x="205" width="4" height="24" rx="2" fill="#D9D9D9"/>
<rect x="210" width="4" height="24" rx="2" fill="#D9D9D9"/>
<rect x="215" y="3" width="4" height="18" rx="2" fill="#D9D9D9"/>
<rect x="220" width="4" height="24" rx="2" fill="#D9D9D9"/>
<rect x="225" y="2" width="4" height="20" rx="2" fill="#D9D9D9"/>
<rect x="230" width="4" height="24" rx="2" fill="#D9D9D9"/>
<rect x="235" width="4" height="24" rx="2" fill="#D9D9D9"/>
<rect x="240" width="4" height="24" rx="2" fill="#D9D9D9"/>
<rect x="245" y="3" width="4" height="18" rx="2" fill="#D9D9D9"/>
<rect x="250" width="4" height="24" rx="2" fill="#D9D9D9"/>
<rect x="255" y="2" width="4" height="20" rx="2" fill="#D9D9D9"/>
<rect x="260" width="4" height="24" rx="2" fill="#D9D9D9"/>
<rect x="265" width="4" height="24" rx="2" fill="#D9D9D9"/>
<rect x="270" width="4" height="24" rx="2" fill="#D9D9D9"/>
<rect x="275" y="3" width="4" height="18" rx="2" fill="#D9D9D9"/>
<rect x="280" width="4" height="24" rx="2" fill="#D9D9D9"/>
<rect x="285" y="3" width="4" height="18" rx="2" fill="#D9D9D9"/>
<rect x="290" width="4" height="24" rx="2" fill="#D9D9D9"/>
<rect x="295" y="2" width="4" height="20" rx="2" fill="#D9D9D9"/>
<rect x="300" width="4" height="24" rx="2" fill="#D9D9D9"/>
<rect x="305" y="2" width="4" height="20" rx="2" fill="#D9D9D9"/>
</svg>
