<?xml version="1.0" encoding="UTF-8"?>
<svg version="1.1" xmlns="http://www.w3.org/2000/svg" width="512" height="512">
<path d="M0 0 C4.65212757 3.41923157 7.28166224 6.78248673 9.125 12.3125 C9.77139357 19.06269569 10.2613397 25.5525851 6.08984375 31.19921875 C0.66343611 37.03557369 -5.23828036 42.88802024 -11.875 47.3125 C-10.07482422 47.44205078 -10.07482422 47.44205078 -8.23828125 47.57421875 C37.27542342 51.24579614 77.88713331 70.35194229 111.125 101.3125 C112.23294922 102.33923828 112.23294922 102.33923828 113.36328125 103.38671875 C147.53169841 136.21995798 168.92017596 185.39412788 170.33984375 232.546875 C171.16690868 275.00796139 160.27039003 316.70452845 135.125 351.3125 C134.73328613 351.86502441 134.34157227 352.41754883 133.93798828 352.98681641 C104.52441195 394.16582327 56.73505067 422.12731158 7.125 430.625 C-41.77198972 438.36863905 -93.25988275 427.18414165 -134.140625 399.06640625 C-137.11424018 396.88290086 -140.00569543 394.63120829 -142.875 392.3125 C-143.39513672 391.89387695 -143.91527344 391.47525391 -144.45117188 391.04394531 C-177.56331449 364.2322524 -200.82961378 327.82630209 -210.875 286.25 C-211.05836914 285.49170898 -211.24173828 284.73341797 -211.43066406 283.95214844 C-214.72674217 268.99595589 -215.28399539 253.88000222 -215.25 238.625 C-215.24945618 237.70184998 -215.24891235 236.77869995 -215.24835205 235.82757568 C-215.21083555 221.95937534 -214.56158873 208.75352942 -210.875 195.3125 C-210.52163574 193.96430176 -210.52163574 193.96430176 -210.16113281 192.58886719 C-204.22548277 170.2196135 -204.22548277 170.2196135 -193.875 163.3125 C-188.28794863 160.6295095 -183.02012281 159.61869581 -176.875 160.3125 C-170.2324662 163.17566112 -165.68593763 167.60830939 -162.5 174.125 C-160.69612418 183.3247667 -162.63304581 191.20785644 -165.25 200.0625 C-176.1518071 238.92851431 -171.10221242 280.98825609 -151.25390625 316.3125 C-144.74958255 327.45816736 -136.80749547 337.04917137 -127.875 346.3125 C-127.15957031 347.09109375 -126.44414062 347.8696875 -125.70703125 348.671875 C-101.10405611 374.70579241 -63.46642705 389.09812733 -28.17578125 390.53125 C7.7253534 391.47209263 42.11086712 379.68670149 70.125 357.3125 C70.90302979 356.69689209 70.90302979 356.69689209 71.69677734 356.06884766 C78.1273243 350.96021185 83.99862158 345.747741 89.125 339.3125 C89.98652397 338.27306005 90.84854546 337.23403235 91.7109375 336.1953125 C98.13648077 328.35349977 103.45679642 320.32113967 108.125 311.3125 C108.73085938 310.15363281 109.33671875 308.99476563 109.9609375 307.80078125 C128.06694862 271.87289014 128.83454238 230.06199626 116.8515625 192.18359375 C110.80645049 174.28317141 101.17419766 157.79216938 89.125 143.3125 C88.68800781 142.78446777 88.25101562 142.25643555 87.80078125 141.71240234 C81.91310914 134.69475009 75.38004774 128.87504727 68.125 123.3125 C66.93583984 122.34763672 66.93583984 122.34763672 65.72265625 121.36328125 C41.40408996 102.42322883 10.54363391 93.39223119 -19.875 92.3125 C-17.21062335 94.8357627 -14.54307299 97.35564655 -11.875 99.875 C-11.13121094 100.57947266 -10.38742187 101.28394531 -9.62109375 102.00976562 C-5.35705391 106.03279451 -1.04074631 109.95127059 3.44726562 113.72387695 C8.30563555 118.324199 9.39284111 123.26956164 9.6875 129.8125 C9.45202747 136.82795738 7.47322925 140.89415077 2.6328125 145.8359375 C-2.73944021 150.65148009 -7.36015948 151.74188924 -14.390625 151.5546875 C-25.74128076 150.44817703 -33.74981752 139.54642425 -41.24414062 131.90722656 C-44.30755691 128.80013961 -47.40562592 125.80952105 -50.71875 122.96875 C-56.62092746 117.87948156 -61.98775745 112.24348865 -67.453125 106.6953125 C-71.86997793 102.23781368 -76.3239617 97.91390029 -81.10424805 93.84619141 C-88.2499971 87.65708407 -93.11448281 82.39663753 -94.3125 72.8125 C-94.13289873 65.36595489 -90.24233414 58.54510516 -85.0859375 53.34375 C-82.12053818 50.53896457 -79.01212739 47.92262318 -75.875 45.3125 C-74.4968104 44.1078059 -73.12135004 42.89997412 -71.75 41.6875 C-70.81414062 40.87539062 -70.81414062 40.87539062 -69.859375 40.046875 C-65.82126738 36.51750535 -61.85525811 32.90679369 -57.875 29.3125 C-52.59580658 24.54522837 -47.30681285 19.79457932 -41.9375 15.12890625 C-39.55616284 13.03170591 -37.2182484 10.88964297 -34.875 8.75 C-24.51076352 -0.5508309 -13.6629638 -8.56182435 0 0 Z " fill="#8E160C" transform="translate(278.875,32.6875)"/>
<path d="M0 0 C4.80570259 4.11599528 6.957034 9.29816018 7.6875 15.4453125 C7.80062381 22.62238981 5.81979076 28.76447336 1.1484375 34.25390625 C-2.37111486 37.86184919 -6.19642128 41.1403825 -10.01171875 44.4296875 C-12.82023202 46.89011678 -15.56705107 49.41513416 -18.3125 51.9453125 C-22.91831755 56.18470116 -27.57984817 60.34824408 -32.3125 64.4453125 C-33.81314092 65.75707965 -35.31314969 67.06957036 -36.8125 68.3828125 C-37.97916667 69.40364583 -39.14583333 70.42447917 -40.3125 71.4453125 C-35.89802897 76.74811385 -31.21861985 81.61837997 -26.28125 86.43359375 C-24.7326251 87.95983221 -23.18446218 89.48653953 -21.63671875 91.01367188 C-19.22549097 93.38787551 -16.81141518 95.75887076 -14.38916016 98.12182617 C-12.03131858 100.42476174 -9.68673702 102.74055908 -7.34375 105.05859375 C-6.62795776 105.75060379 -5.91216553 106.44261383 -5.17468262 107.15559387 C0.38023035 112.68171022 5.70513058 118.95598987 7.4140625 126.765625 C7.14663014 134.15087245 6.21591999 139.6995017 1.0390625 145.1953125 C-4.50272908 150.22890485 -9.020626 151.63666808 -16.421875 151.90625 C-25.58818551 150.44459508 -31.21591955 145.22637123 -37.4375 138.6953125 C-38.19675781 137.921875 -38.95601562 137.1484375 -39.73828125 136.3515625 C-43.18143184 132.81951818 -46.52853479 129.23424069 -49.7421875 125.4921875 C-54.00876742 120.55477711 -58.66625793 116.02220767 -63.3125 111.4453125 C-68.66390999 106.17377431 -73.89155549 100.8935378 -78.77978516 95.1875 C-80.88529269 92.79423753 -83.17996925 90.62887086 -85.5 88.4453125 C-91.01003974 82.94365943 -94.37006798 78.47680906 -94.875 70.5703125 C-94.2759218 59.93262656 -88.14045868 53.82344273 -80.60986328 47.06030273 C-78.8526086 45.51182851 -77.084886 43.97642017 -75.3125 42.4453125 C-74.15427734 41.42244141 -74.15427734 41.42244141 -72.97265625 40.37890625 C-71.73203099 39.28543082 -70.48620026 38.19782299 -69.234375 37.1171875 C-66.90144926 35.08773177 -64.60738755 33.0176655 -62.3125 30.9453125 C-59.35380249 28.27482906 -56.38323528 25.62233192 -53.375 23.0078125 C-50.14690488 20.19708725 -46.97511557 17.3295135 -43.8125 14.4453125 C-41.97916667 12.77864583 -40.14583333 11.11197917 -38.3125 9.4453125 C-37.24128906 8.46304688 -37.24128906 8.46304688 -36.1484375 7.4609375 C-25.41594013 -2.20258603 -13.54848079 -9.56041991 0 0 Z " fill="#8E160C" transform="translate(198.3125,34.5546875)"/>
<path d="M0 0 C12.00493295 10.29653865 15.42467603 27.61927278 16.65844727 42.68334961 C17.84921868 61.07331385 17.43493484 86.070282 5 101 C2.5625 103.6875 2.5625 103.6875 0 106 C-0.845625 106.825 -1.69125 107.65 -2.5625 108.5 C-12.60156736 116.73985789 -25.59169685 117.70162133 -38 117 C-49.21014509 115.50192852 -59.18078584 111.49453362 -66.41015625 102.49609375 C-69.88237921 97.04461839 -72.03208457 91.11598661 -74 85 C-74.21317871 84.34837891 -74.42635742 83.69675781 -74.64599609 83.02539062 C-82.07981482 59.13813172 -80.32842437 31.15287982 -68.87890625 8.91796875 C-63.1697371 0.05154598 -54.14950309 -6.48546868 -44 -9.25 C-28.26332236 -12.26687602 -12.76362492 -9.97663087 0 0 Z M-46.15234375 24.09765625 C-48.65155862 28.02348427 -49.53287599 31.93419499 -50.5625 36.4375 C-52.6446296 45.32262732 -52.6446296 45.32262732 -54.6640625 49.171875 C-58.0237374 56.28416924 -55.49969595 67.63825808 -53 75 C-51.04526252 79.89478978 -48.99087899 83.87833913 -44.3125 86.5625 C-38.86454215 88.78887825 -33.41379199 88.95324035 -27.76171875 87.375 C-22.21007176 85.03306229 -19.26508796 81.51686197 -17 76 C-11.9583707 59.83832543 -11.98803209 38.43045672 -20 23 C-23.81113771 18.9882761 -27.25013616 18.71256678 -32.5625 18.5625 C-38.61475546 18.56962869 -41.8279297 19.88311842 -46.15234375 24.09765625 Z " fill="#8E160C" transform="translate(321,225)"/>
<path d="M0 0 C15.84 0 31.68 0 48 0 C48 41.25 48 82.5 48 125 C38.1 125 28.2 125 18 125 C18 93.32 18 61.64 18 29 C12.06 29 6.12 29 0 29 C0 19.43 0 9.86 0 0 Z " fill="#8D170C" transform="translate(174,217)"/>
</svg>
