<svg width="25" height="25" viewBox="0 0 25 25" fill="none" xmlns="http://www.w3.org/2000/svg">
<path fill-rule="evenodd" clip-rule="evenodd" d="M12.8873 22.5C18.4102 22.5 22.8873 18.0228 22.8873 12.5C22.8873 6.97715 18.4102 2.5 12.8873 2.5C7.36448 2.5 2.88733 6.97715 2.88733 12.5C2.88733 18.0228 7.36448 22.5 12.8873 22.5ZM16.8873 14.5455V12.0488C16.8873 9.90445 16.8873 8.8323 16.3015 8.16615C15.7158 7.5 14.7729 7.5 12.8873 7.5C11.0017 7.5 10.0589 7.5 9.47312 8.16615C8.88733 8.8323 8.88733 9.90445 8.88733 12.0488V14.5455C8.88733 16.0937 8.88733 16.8679 9.2136 17.2062C9.3692 17.3675 9.56562 17.4688 9.77485 17.4958C10.2136 17.5522 10.7259 17.0425 11.7505 16.0229C12.2034 15.5722 12.4299 15.3469 12.6919 15.2875C12.8209 15.2583 12.9537 15.2583 13.0828 15.2875C13.3448 15.3469 13.5712 15.5722 14.0241 16.0229C15.0488 17.0425 15.5611 17.5522 15.9998 17.4958C16.209 17.4688 16.4055 17.3675 16.5611 17.2062C16.8873 16.8679 16.8873 16.0937 16.8873 14.5455Z" fill="#BDBDBD"/>
</svg>
