<svg width="14" height="14" viewBox="0 0 14 14" fill="none" xmlns="http://www.w3.org/2000/svg">
<path fill-rule="evenodd" clip-rule="evenodd" d="M3.2809 2.58079C2.31315 3.02315 1.60419 4.07531 1.60419 5.32998C1.60419 6.6118 2.12873 7.59981 2.88069 8.44654C3.50044 9.14441 4.25067 9.72279 4.98234 10.2869C5.15612 10.4208 5.32886 10.554 5.49855 10.6878C5.8054 10.9297 6.07912 11.142 6.34296 11.2962C6.60694 11.4504 6.81942 11.5208 7.00002 11.5208C7.18062 11.5208 7.3931 11.4504 7.65708 11.2962C7.92092 11.142 8.19464 10.9297 8.50149 10.6878C8.67118 10.554 8.84392 10.4208 9.0177 10.2869C9.74937 9.72279 10.4996 9.14441 11.1194 8.44654C11.8713 7.59981 12.3959 6.6118 12.3959 5.32998C12.3959 4.07531 11.6869 3.02315 10.7191 2.58079C9.77898 2.15104 8.51572 2.26485 7.31523 3.5121C7.23276 3.59779 7.11895 3.64621 7.00002 3.64621C6.88109 3.64621 6.76728 3.59779 6.68481 3.5121C5.48432 2.26485 4.22106 2.15104 3.2809 2.58079ZM7.00002 2.60098C5.65132 1.39432 4.14108 1.22552 2.91713 1.78499C1.62444 2.37588 0.729187 3.74794 0.729187 5.32998C0.729187 6.88488 1.37698 8.07104 2.22644 9.02756C2.9067 9.79356 3.73932 10.4346 4.47467 11.0008C4.64136 11.1292 4.80306 11.2537 4.95685 11.3749C5.25565 11.6105 5.57642 11.8617 5.9015 12.0516C6.22644 12.2415 6.59729 12.3958 7.00002 12.3958C7.40275 12.3958 7.7736 12.2415 8.09854 12.0516C8.42362 11.8617 8.74439 11.6105 9.04319 11.3749C9.19698 11.2537 9.35868 11.1292 9.52537 11.0008C10.2607 10.4346 11.0933 9.79356 11.7736 9.02756C12.6231 8.07104 13.2709 6.88488 13.2709 5.32998C13.2709 3.74794 12.3756 2.37588 11.0829 1.78499C9.85896 1.22552 8.34872 1.39432 7.00002 2.60098Z" fill="#B4B4B4"/>
</svg>
