<svg width="32" height="32" viewBox="0 0 32 32" fill="none" xmlns="http://www.w3.org/2000/svg">
<circle cx="16" cy="16" r="16" fill="#F5F5F5"/>
<path d="M13.9745 20.6072L14.3614 20.1164L13.9745 20.6072ZM16 11.667L15.5497 12.1004C15.6675 12.2229 15.8301 12.292 16 12.292C16.1699 12.292 16.3325 12.2229 16.4503 12.1004L16 11.667ZM18.0255 20.6072L18.4124 21.098L18.0255 20.6072ZM14.3614 20.1164C13.3436 19.314 12.2525 18.5462 11.3856 17.5701C10.5402 16.6181 9.95833 15.5173 9.95833 14.0913H8.70833C8.70833 15.9074 9.46627 17.2913 10.451 18.4001C11.4143 19.4849 12.6439 20.3541 13.5876 21.098L14.3614 20.1164ZM9.95833 14.0913C9.95833 12.7042 10.742 11.5474 11.8015 11.0631C12.8217 10.5968 14.2097 10.7082 15.5497 12.1004L16.4503 11.2336C14.7904 9.50903 12.8451 9.21169 11.2819 9.92623C9.75808 10.6228 8.70833 12.2365 8.70833 14.0913H9.95833ZM13.5876 21.098C13.9279 21.3663 14.3012 21.6589 14.6815 21.8811C15.0615 22.1032 15.508 22.2916 16 22.2916V21.0416C15.8253 21.0416 15.6051 20.9731 15.3121 20.8019C15.0194 20.6308 14.7132 20.3937 14.3614 20.1164L13.5876 21.098ZM18.4124 21.098C19.3561 20.3541 20.5857 19.4849 21.549 18.4001C22.5337 17.2913 23.2917 15.9074 23.2917 14.0913H22.0417C22.0417 15.5173 21.4598 16.6181 20.6143 17.5701C19.7475 18.5462 18.6564 19.314 17.6386 20.1164L18.4124 21.098ZM23.2917 14.0913C23.2917 12.2365 22.2419 10.6228 20.7181 9.92623C19.1549 9.21169 17.2096 9.50903 15.5497 11.2336L16.4503 12.1004C17.7903 10.7082 19.1783 10.5968 20.1985 11.0631C21.258 11.5474 22.0417 12.7042 22.0417 14.0913H23.2917ZM17.6386 20.1164C17.2867 20.3937 16.9806 20.6308 16.6879 20.8019C16.3949 20.9731 16.1747 21.0416 16 21.0416V22.2916C16.492 22.2916 16.9384 22.1032 17.3185 21.8811C17.6988 21.6589 18.0721 21.3663 18.4124 21.098L17.6386 20.1164Z" fill="#B4B4B4"/>
</svg>
