<svg width="25" height="25" viewBox="0 0 25 25" fill="none" xmlns="http://www.w3.org/2000/svg">
<path fill-rule="evenodd" clip-rule="evenodd" d="M2.85715 8.32274C2.33795 9.27128 2.33795 10.4155 2.33795 12.7039V14.225C2.33795 18.1258 2.33795 20.0763 3.50952 21.2881C4.6811 22.5 6.56672 22.5 10.338 22.5H14.338C18.1092 22.5 19.9948 22.5 21.1664 21.2881C22.338 20.0763 22.338 18.1258 22.338 14.225V12.7039C22.338 10.4155 22.338 9.27128 21.8188 8.32274C21.2995 7.37421 20.351 6.78551 18.4539 5.60812L16.4539 4.36687C14.4486 3.12229 13.4459 2.5 12.338 2.5C11.23 2.5 10.2273 3.12229 8.22198 4.36687L6.22199 5.60813C4.3249 6.78551 3.37635 7.37421 2.85715 8.32274ZM9.33795 17.75C8.92374 17.75 8.58795 18.0858 8.58795 18.5C8.58795 18.9142 8.92374 19.25 9.33795 19.25H15.338C15.7522 19.25 16.088 18.9142 16.088 18.5C16.088 18.0858 15.7522 17.75 15.338 17.75H9.33795Z" fill="#8E170D"/>
</svg>
