<?xml version="1.0" encoding="UTF-8"?>
<svg version="1.1" xmlns="http://www.w3.org/2000/svg" width="512" height="512">
<path d="M0 0 C6.85261473 5.23812435 12.79980297 11.70858289 18.82666016 17.86254883 C21.73401367 20.81592347 24.6908024 23.6358539 27.8359375 26.3359375 C33.50930041 31.23448191 38.67932889 36.63405327 43.93359375 41.97265625 C48.27514292 46.3564247 52.67263303 50.58121706 57.37036133 54.58300781 C63.10050402 59.565442 67.42062098 67.01585482 68.3046875 74.62109375 C67.76857103 86.07611576 58.91083309 93.6718345 51 101 C49.76965043 102.06154533 48.53773917 103.12128203 47.3046875 104.1796875 C42.29026304 108.54154181 37.66174642 113.26762106 33 118 C27.78248526 123.29656799 22.55760507 128.467631 16.91162109 133.30664062 C12.85692002 136.89839116 9.14576376 140.85556566 5.38085938 144.74609375 C-0.21224335 150.43732108 -4.97213977 153.98390338 -13.125 154.375 C-19.41164827 154.29200794 -25.04108651 151.70311956 -29.671875 147.47265625 C-33.78575673 142.71749295 -35.30095519 138.99938214 -35.375 132.75 C-35.40335938 131.67234375 -35.43171875 130.5946875 -35.4609375 129.484375 C-34.33640278 120.98365495 -29.52021442 116.01612542 -23.3125 110.5 C-22.60222656 109.85216553 -21.89195312 109.20433105 -21.16015625 108.53686523 C-19.1174648 106.67891994 -17.06127416 104.83727924 -15 103 C-13.98278002 102.08496091 -12.96581273 101.16964076 -11.94921875 100.25390625 C-9.97710659 98.48938484 -7.99697634 96.73625999 -6 95 C-45.19571373 95.93657619 -82.38677693 111.99041488 -110 140 C-113.19075394 143.53469922 -116.13278375 147.19939141 -119 151 C-119.71671875 151.93972656 -120.4334375 152.87945312 -121.171875 153.84765625 C-145.23197169 186.90895933 -154.88679921 227.50744963 -149.10766602 267.86181641 C-144.67952872 295.88149745 -132.64756832 321.62862957 -114 343 C-113.39414063 343.72703125 -112.78828125 344.4540625 -112.1640625 345.203125 C-90.2399481 371.19460904 -56.02141825 386.69440043 -23 392 C-21.78957031 392.19722656 -21.78957031 392.19722656 -20.5546875 392.3984375 C16.29748048 397.14941386 54.57980371 386.37013129 84.375 364.5 C89.82377968 360.2514245 94.9801439 355.74501696 100 351 C100.81082031 350.25363281 101.62164062 349.50726563 102.45703125 348.73828125 C128.59567139 323.83453749 143.58645503 286.80980598 145 251 C145.04084717 249.97616211 145.04084717 249.97616211 145.08251953 248.93164062 C145.67297377 231.74533726 143.00709964 216.20704416 137.98193359 199.78588867 C135.71662005 192.09852505 134.17587487 184.07658633 138.125 176.6875 C141.83404344 170.07752873 146.31508195 166.58397775 153.640625 164.4453125 C160.32722285 163.18327251 165.43420294 164.74962966 171.078125 168.35546875 C176.4798777 172.97770023 178.98844707 177.52346186 181.0625 184.1875 C181.31217529 184.96198486 181.56185059 185.73646973 181.8190918 186.53442383 C186.10954722 200.29451744 189.12506438 214.66457933 189.203125 229.09765625 C189.21013931 229.96087494 189.21715363 230.82409363 189.22438049 231.71347046 C189.24185173 234.4965335 189.2482359 237.27938408 189.25 240.0625 C189.25067474 241.01029327 189.25134949 241.95808655 189.25204468 242.93460083 C189.23630081 256.82083944 188.92235623 270.37209831 186 284 C185.76651855 285.14807129 185.76651855 285.14807129 185.52832031 286.31933594 C179.68680453 314.12774937 166.71483958 340.86118374 149 363 C148.32735107 363.84401367 148.32735107 363.84401367 147.64111328 364.70507812 C115.45199362 404.71834462 69.30421388 428.71136073 18.42333984 434.74609375 C-31.58370049 439.98559828 -83.59989495 424.87480202 -122.99609375 393.515625 C-128.16961837 389.18305042 -133.12810579 384.66393832 -138 380 C-138.5583252 379.47422363 -139.11665039 378.94844727 -139.69189453 378.40673828 C-169.57179912 350.17802574 -187.66820077 312.44616638 -194 272 C-194.103125 271.35144043 -194.20625 270.70288086 -194.3125 270.03466797 C-197.07375298 249.5274338 -196.42438258 226.17407152 -192 206 C-191.70198486 204.63609131 -191.70198486 204.63609131 -191.39794922 203.24462891 C-185.54955393 177.39340748 -175.81338902 151.47608832 -160 130 C-159.23042969 128.94683594 -158.46085937 127.89367187 -157.66796875 126.80859375 C-151.92148038 119.08221323 -145.63175978 111.97264463 -139 105 C-138.41992188 104.36707031 -137.83984375 103.73414063 -137.2421875 103.08203125 C-105.5920743 69.6028914 -56.38332769 53.81359081 -12 48 C-13.70685693 46.43588733 -15.41555968 44.87378883 -17.125 43.3125 C-17.629104 42.8498877 -18.13320801 42.38727539 -18.65258789 41.91064453 C-21.17138771 39.61138244 -23.70564556 37.41506701 -26.4375 35.375 C-30.62428086 31.49456896 -32.63261177 27.78540262 -33.3828125 22.09765625 C-33.62735788 15.63350665 -33.12694447 10.16444448 -29 5 C-20.72934317 -2.8835197 -10.47381472 -5.91417589 0 0 Z " fill="#8E160C" transform="translate(259,30)"/>
<path d="M0 0 C3.74736898 3.14631798 7.13787354 6.59301331 10.515625 10.125 C13.29052999 12.98179889 16.27613132 15.55954816 19.28735352 18.1628418 C22.80341021 21.24629145 26.18219561 24.47288813 29.57421875 27.69140625 C34.7812571 32.61150525 39.99619666 37.52138397 45.26171875 42.37890625 C45.78000244 42.85811523 46.29828613 43.33732422 46.83227539 43.83105469 C49.37537242 46.17604595 51.93540486 48.49811776 54.52734375 50.7890625 C55.5121875 51.66433594 56.49703125 52.53960937 57.51171875 53.44140625 C58.38054687 54.20324219 59.249375 54.96507812 60.14453125 55.75 C64.66406612 60.29315613 66.45939955 64.82671362 66.76171875 71.12890625 C66.33334329 83.83509704 55.99247849 92.11922741 47.58203125 100.4375 C46.21508788 101.80527336 44.84896168 103.17386385 43.48361206 104.54322815 C40.63189745 107.3977887 37.77166892 110.2434402 34.90478516 113.08276367 C31.23887667 116.7145114 27.59346726 120.36605604 23.95396614 124.02424526 C21.14062212 126.84817536 18.31758253 129.66224755 15.49145126 132.47337532 C14.14351336 133.8161483 12.79837152 135.16173441 11.45615005 136.51022148 C9.57818825 138.39365787 7.68775182 140.26362528 5.79345703 142.13061523 C4.97337158 142.9604895 4.97337158 142.9604895 4.13671875 143.80712891 C-0.80385445 148.62774564 -5.95351245 151.43086053 -13.05078125 151.44140625 C-19.30989742 151.23562709 -23.78472654 149.6623697 -28.3671875 145.35546875 C-32.79540364 140.4684254 -34.89923657 135.99638391 -35.11328125 129.31640625 C-35.16484375 128.36378906 -35.21640625 127.41117188 -35.26953125 126.4296875 C-33.41566846 116.75208233 -25.84829028 109.68639957 -19.05859375 103.05859375 C-18.15704559 102.16270538 -17.25549744 101.26681702 -16.32662964 100.34378052 C-13.95657611 97.99217578 -11.57826382 95.6496414 -9.19525146 93.31121826 C-6.75428167 90.91156018 -4.32494582 88.50018346 -1.89453125 86.08984375 C2.85537568 81.38380228 7.61654251 76.68939628 12.38671875 72.00390625 C10.03376504 69.02264834 7.79981267 66.31926125 4.88671875 63.87890625 C1.31621833 60.82799357 -2.16207119 57.68839263 -5.61328125 54.50390625 C-8.91321781 51.46465241 -12.22278492 48.4423364 -15.61328125 45.50390625 C-16.226875 44.96636719 -16.84046875 44.42882812 -17.47265625 43.875 C-19.18381798 42.37929477 -20.90475617 40.89477689 -22.62890625 39.4140625 C-34.88516894 28.72787828 -34.88516894 28.72787828 -36.0078125 19.90234375 C-36.30914217 13.8056737 -36.08295084 8.72836067 -32.37109375 3.72265625 C-22.88950419 -5.54823132 -10.93219151 -7.91773033 0 0 Z " fill="#8E160C" transform="translate(341.61328125,34.99609375)"/>
<path d="M0 0 C11.74810385 9.48885311 15.99027584 24.62361757 17.68798828 39.10546875 C19.61044406 58.47368253 19.50393648 83.93890583 7.68359375 100.47265625 C5.72968201 102.81857537 3.70494395 104.92252009 1.4375 106.96875 C0.591875 107.79375 -0.25375 108.61875 -1.125 109.46875 C-11.56463357 118.03738431 -25.33877211 118.88994262 -38.20703125 117.73046875 C-48.31440192 116.11394258 -57.66116155 111.21353403 -64.59765625 103.6875 C-68.50934881 98.27489955 -70.61396038 92.28310004 -72.5625 85.96875 C-72.77277832 85.3185791 -72.98305664 84.6684082 -73.19970703 83.99853516 C-80.64353796 60.11108722 -78.89251907 32.12472671 -67.44140625 9.88671875 C-61.7322371 1.02029598 -52.71200309 -5.51671868 -42.5625 -8.28125 C-27.38676378 -11.15940687 -12.84418356 -8.81170733 0 0 Z M-46.5625 23.96875 C-54.26116901 38.48902446 -54.25314479 57.3367401 -50.5625 72.96875 C-48.53876696 78.78032548 -46.34677738 84.51469468 -40.8125 87.71875 C-34.66219656 90.01924518 -28.28208257 90.03037632 -22.25 87.40625 C-17.73394746 84.8374023 -14.67811536 81.06542779 -12.91796875 76.1796875 C-10.5508196 61.45654003 -13.63654636 37.19970972 -20.5625 23.96875 C-23.45029817 20.71072129 -25.32552819 20.1154013 -29.59375 19.609375 C-36.33597857 19.33102611 -41.48344873 19.32195841 -46.5625 23.96875 Z " fill="#8E160C" transform="translate(319.5625,224.03125)"/>
<path d="M0 0 C15.84 0 31.68 0 48 0 C48 41.25 48 82.5 48 125 C38.1 125 28.2 125 18 125 C18 93.32 18 61.64 18 29 C12.06 29 6.12 29 0 29 C0 19.43 0 9.86 0 0 Z " fill="#8D170C" transform="translate(174,217)"/>
</svg>
