<?xml version="1.0" encoding="UTF-8"?>
<svg version="1.1" xmlns="http://www.w3.org/2000/svg" width="512" height="512">
<path d="M0 0 C1.51671886 1.26424817 3.0593383 2.49722026 4.60253906 3.72900391 C19.28864031 15.68237492 33.1902857 29.28168978 44.33349609 44.62451172 C45.62066708 46.38127784 46.9453607 48.10442915 48.27832031 49.82666016 C72.45591287 81.38831197 88.32687017 120.12752123 94.56347656 159.30322266 C94.72428711 160.30675781 94.88509766 161.31029297 95.05078125 162.34423828 C99.15307909 189.19102865 98.85784384 216.50430539 94.56347656 243.30322266 C94.40782227 244.28097656 94.25216797 245.25873047 94.09179688 246.26611328 C83.83070262 307.66882901 48.55341729 366.91574741 -1.70214844 404.01318359 C-3.45613547 405.31781021 -5.18141301 406.65442649 -6.90527344 407.99853516 C-58.49573872 447.71022316 -126.64664264 463.36497081 -190.72607422 455.71557617 C-232.1290536 450.25493496 -271.20213463 435.19680584 -305.43652344 411.30322266 C-306.15565918 410.80177734 -306.87479492 410.30033203 -307.61572266 409.78369141 C-318.02591578 402.43816999 -327.32460976 394.18751632 -336.43652344 385.30322266 C-337.07509277 384.69043457 -337.71366211 384.07764648 -338.37158203 383.44628906 C-346.67181637 375.47831329 -354.27219981 367.3099454 -361.12597656 358.0625 C-362.45449434 356.27909852 -363.81012381 354.5191275 -365.17089844 352.76025391 C-404.6647793 301.10368044 -421.02435224 232.73318877 -412.84033203 168.60058594 C-412.40469949 165.49544331 -411.93264328 162.39924907 -411.43652344 159.30322266 C-411.28086914 158.32546875 -411.12521484 157.34771484 -410.96484375 156.34033203 C-402.66879853 106.69653249 -378.42754956 60.28925426 -343.43652344 24.30322266 C-342.82550781 23.66642578 -342.21449219 23.02962891 -341.58496094 22.37353516 C-333.27930111 13.73697254 -324.82481479 5.71874882 -315.1796875 -1.40234375 C-313.40167473 -2.7226552 -311.64898673 -4.07204745 -309.89746094 -5.42724609 C-231.90738178 -65.10203185 -121.53510399 -69.85830349 0 0 Z " fill="#BDBDBD" transform="translate(414.4365234375,54.69677734375)"/>
<path d="M0 0 C3.1356187 0.00516761 6.27116054 -0.0022289 9.4067713 -0.00947207 C16.81604308 -0.02638042 24.22510847 -0.02299808 31.6343751 -0.00618243 C39.22581318 0.01072616 46.81667563 -0.00509871 54.40805089 -0.03740531 C60.9750975 -0.06427258 67.54196683 -0.07133133 74.10906279 -0.06289023 C78.00962734 -0.05801007 81.90984636 -0.05990475 85.81036615 -0.08067775 C111.60822167 -0.20395787 135.41261453 1.78532306 154.88925791 20.50895429 C156.23744396 21.84905769 157.56572326 23.20910188 158.89267588 24.57023358 C159.55783213 25.2263664 160.22298838 25.88249921 160.90830088 26.55851483 C166.36865249 32.3017225 170.71506686 39.32712153 173.89267588 46.57023358 C174.33313242 47.55741376 174.77358896 48.54459394 175.22739267 49.56168866 C180.00416033 62.16858214 179.61787133 74.95007892 179.4895997 88.28288007 C179.46066777 91.6235946 179.46169846 94.96121606 179.48026228 98.30178857 C179.49336954 101.52026543 179.47514023 104.73850861 179.45908213 107.95695233 C179.464042 109.14963223 179.46900187 110.34231214 179.47411203 111.57113385 C179.35720543 119.75931681 179.35720543 119.75931681 177.04477549 123.79606366 C173.91000229 126.3803401 171.38586386 126.69555836 167.46136522 126.70445466 C166.54930933 126.7089125 165.63725343 126.71337035 164.69755948 126.71796328 C163.69417109 126.71777892 162.69078271 126.71759455 161.65698862 126.7174046 C160.59214601 126.72108129 159.5273034 126.72475798 158.43019283 126.72854608 C154.84427742 126.73960315 151.25839096 126.74343016 147.67246103 126.74723554 C145.1087343 126.75349853 142.54500848 126.76014518 139.98128366 126.76714826 C132.27610651 126.78638799 124.57093445 126.79697714 116.86573941 126.80587605 C113.23823639 126.81025892 109.61073484 126.81562565 105.98323298 126.82086492 C93.92709834 126.83787491 81.87096461 126.8523703 69.81481981 126.85961366 C66.68647495 126.86152357 63.55813009 126.86344391 60.42978525 126.8653996 C59.65224285 126.86588334 58.87470045 126.86636708 58.07359616 126.86686548 C45.470626 126.87517042 32.8677506 126.90051615 20.26482184 126.93298028 C7.32944886 126.96602957 -5.60587592 126.98406039 -18.54129136 126.9872579 C-25.80566529 126.98942473 -33.06990093 126.9981988 -40.33423376 127.02371907 C-47.1648588 127.04766025 -53.99523082 127.0512652 -60.82588911 127.04095769 C-63.33616415 127.04046031 -65.84645113 127.04683978 -68.35668898 127.06051373 C-71.77731848 127.07810797 -75.19704076 127.07118738 -78.61766958 127.05798078 C-79.61659652 127.06895002 -80.61552346 127.07991927 -81.64472091 127.09122092 C-85.99707438 127.05050551 -88.42886744 126.98819196 -92.20042753 124.66474938 C-95.14655723 121.42875053 -95.24374598 119.56420563 -95.30019522 115.2728703 C-95.31625814 114.16346082 -95.33232107 113.05405133 -95.34887075 111.91102338 C-95.39356544 106.78003091 -95.43491414 101.6491271 -95.45742178 96.51798749 C-95.4706306 93.82725345 -95.50100068 91.13835323 -95.53945303 88.44767499 C-95.88998778 63.77917289 -93.26739097 43.37207411 -75.42763662 24.86710858 C-74.6619335 24.10913983 -73.89623037 23.35117108 -73.10732412 22.57023358 C-72.382871 21.81226483 -71.65841787 21.05429608 -70.91201162 20.27335858 C-66.08307161 15.52626501 -60.88351258 12.00217687 -54.98232412 8.75773358 C-54.34488272 8.39671552 -53.70744131 8.03569745 -53.0506835 7.66373944 C-36.43445849 -1.00498221 -18.18144307 -0.04362518 0 0 Z " fill="#FEFEFE" transform="translate(214.10732412338257,286.4297664165497)"/>
<path d="M0 0 C14.6245862 12.88216563 25.0232068 30.4159017 26.82861328 50.01367188 C28.13844905 72.6785738 23.62868413 92.60309423 8.5625 110.125 C7.78648437 111.09695312 7.01046875 112.06890625 6.2109375 113.0703125 C-4.88809943 126.34914527 -23.41294915 135.31350337 -40.4375 137.125 C-63.36084353 138.85014871 -83.53915105 133.62968132 -101.4375 118.8125 C-114.75387403 107.17746577 -125.18410383 89.85566983 -127.4375 72.125 C-128.60476387 48.00004442 -125.62920576 27.82256499 -109.4375 9.125 C-108.53837891 7.93390625 -108.53837891 7.93390625 -107.62109375 6.71875 C-80.45368551 -25.55165978 -31.34560909 -24.99017896 0 0 Z " fill="#FEFEFE" transform="translate(306.4375,116.875)"/>
</svg>
