<svg width="32" height="32" viewBox="0 0 32 32" fill="none" xmlns="http://www.w3.org/2000/svg">
<circle cx="16" cy="16" r="16" fill="#F5F5F5"/>
<path d="M14 16C14 16.9205 13.2538 17.6666 12.3333 17.6666C11.4129 17.6666 10.6667 16.9205 10.6667 16C10.6667 15.0795 11.4129 14.3333 12.3333 14.3333C13.2538 14.3333 14 15.0795 14 16Z" stroke="#B4B4B4" stroke-width="1.25"/>
<path d="M17.3333 12.3333L14 14.6666" stroke="#B4B4B4" stroke-width="1.25" stroke-linecap="round"/>
<path d="M17.3333 19.6667L14 17.3334" stroke="#B4B4B4" stroke-width="1.25" stroke-linecap="round"/>
<path d="M20.6667 20.3334C20.6667 21.2538 19.9205 22 19 22C18.0795 22 17.3333 21.2538 17.3333 20.3334C17.3333 19.4129 18.0795 18.6667 19 18.6667C19.9205 18.6667 20.6667 19.4129 20.6667 20.3334Z" stroke="#B4B4B4" stroke-width="1.25"/>
<path d="M20.6667 11.6667C20.6667 12.5871 19.9205 13.3333 19 13.3333C18.0795 13.3333 17.3333 12.5871 17.3333 11.6667C17.3333 10.7462 18.0795 10 19 10C19.9205 10 20.6667 10.7462 20.6667 11.6667Z" stroke="#B4B4B4" stroke-width="1.25"/>
</svg>
