<svg width="25" height="25" viewBox="0 0 25 25" fill="none" xmlns="http://www.w3.org/2000/svg">
<path fill-rule="evenodd" clip-rule="evenodd" d="M22.662 12.5C22.662 18.0228 18.1848 22.5 12.662 22.5C7.13914 22.5 2.66199 18.0228 2.66199 12.5C2.66199 6.97715 7.13914 2.5 12.662 2.5C18.1848 2.5 22.662 6.97715 22.662 12.5ZM15.662 9.5C15.662 11.1569 14.3188 12.5 12.662 12.5C11.0051 12.5 9.66199 11.1569 9.66199 9.5C9.66199 7.84315 11.0051 6.5 12.662 6.5C14.3188 6.5 15.662 7.84315 15.662 9.5ZM12.662 21C14.446 21 16.1017 20.4504 17.4689 19.5112C18.0728 19.0964 18.3308 18.3062 17.9798 17.6632C17.2519 16.3303 15.7522 15.5 12.6619 15.5C9.57168 15.5 8.07195 16.3302 7.34413 17.6632C6.99303 18.3062 7.25109 19.0963 7.85494 19.5111C9.22217 20.4503 10.8779 21 12.662 21Z" fill="#BDBDBD"/>
</svg>
